<svg xmlns="http://www.w3.org/2000/svg" id="Layer_1" data-name="Layer 1" viewBox="0 0 396 70"><defs><style>.cls-1{fill:#fcaf17;}.cls-1,.cls-2,.cls-3,.cls-4,.cls-5,.cls-6{fill-rule:evenodd;}.cls-2{fill:#006296;}.cls-4{fill:#d7182a;}.cls-5{fill:#fff;}.cls-6{fill:#008d5c;}.cls-7{fill:#d0d2d3;}.cls-8{fill:#929497;}</style></defs><path class="cls-1" d="M66.25,19.77H38v21.7a1.48,1.48,0,0,0,0,.16,4.64,4.64,0,0,0,1.3,2.46A5,5,0,0,0,43,45.74a3.89,3.89,0,0,0,.41,0h4.63a7.7,7.7,0,0,1,1,.05c1.62.16,2.18.71,3.09,2a3.67,3.67,0,0,1,3.69-2.05h5.78a5.28,5.28,0,0,0,4.49-3.59,3.53,3.53,0,0,0,.18-.74Z"></path><path class="cls-2" d="M2,10a3.49,3.49,0,0,1,1.78,3V41.45s0,.06,0,.16A4.83,4.83,0,0,0,5.12,44a5.73,5.73,0,0,0,4.13,1.67H14a7.17,7.17,0,0,1,.85,0,3.55,3.55,0,0,1,3.07,2,3.86,3.86,0,0,1,3.82-2h5.66a5.81,5.81,0,0,0,4.49-3.62,2.41,2.41,0,0,0,.16-.6V13.26a6.35,6.35,0,0,1,.12-.87A2.86,2.86,0,0,1,33.88,10H26.07V37.27a5,5,0,0,1-.09.6,2.39,2.39,0,0,1-1.89,1.92h-12a5.86,5.86,0,0,1-.65-.24,2.51,2.51,0,0,1-1.61-2.28V10Z"></path><path class="cls-2" d="M36.15,10A3.53,3.53,0,0,1,38,13v6.24H66.25v-6a7.63,7.63,0,0,1,.15-.86A3.53,3.53,0,0,1,68,10Z"></path><path class="cls-3" d="M57.48,41.37a2.2,2.2,0,0,0-.13.57l.11,0A3.59,3.59,0,0,1,57.48,41.37Zm1.1,1.14.05.18a1.47,1.47,0,0,1-.13.16.77.77,0,0,1-.73.25,1.81,1.81,0,0,1-.63-.36l.08,0L57,42.59c-.28.18-.87,0-1.11-.11l.13-.16a3.77,3.77,0,0,1-.51-.17s.15-.23.2-.29a1,1,0,0,1,.46-.38l.07-.13a1.68,1.68,0,0,0-.1-1.53,1.2,1.2,0,0,1-.25-.49,4.52,4.52,0,0,0-1.61.59.91.91,0,0,1-.63.07l-.06,0a.17.17,0,0,1-.12-.17,15.17,15.17,0,0,0-1.65.06c0,.17.07.45.1.67a3.92,3.92,0,0,0,.14.9l.07.17a.54.54,0,0,1,0,.51l0,.1c.06.32-.35.4-.6.4a1.12,1.12,0,0,1-.56-.24l0-.11-.16,0a2.74,2.74,0,0,1-.26-.15l.06-.23a1.55,1.55,0,0,1,.19-.36v-.65l-.08-.1-.06-.09a1.82,1.82,0,0,0-.18,1l0,.11a.47.47,0,0,1-.18.53l.08.35-.18.17a1.05,1.05,0,0,1-1.07.1.64.64,0,0,1,0-.14.24.24,0,0,1,0-.08,3.77,3.77,0,0,1-.43-.1A2,2,0,0,1,49,42.2a1.58,1.58,0,0,1,.35-.53l0-.06a2.44,2.44,0,0,1,.07-.39c.18-.5-.18-.45-.12-1.1-.31-.21-.83-.44-1-.76-.06-.13-.13-.16-.2-.27L48.08,39c-.17-.13-.2-.08-.23-.32l0-.13a1.2,1.2,0,0,0-.26-.5c-.57-.45-.87.05-1.37-.18l-.07,0a.45.45,0,0,0-.43-.11l-.08,0a.73.73,0,0,1-1-.21.66.66,0,0,1-.37-.33.53.53,0,0,1,.08-.63l.07-.06c.21-.21.11-.6.5-.95s.14-.44.41-.71a2.69,2.69,0,0,1-.76-.63l.23-.26.32.16a1,1,0,0,0,.6.11l.1,0a.58.58,0,0,1,.5,0l.06,0,.08.06c.17.09.3-.17.71,0l.1,0c.14,0,.66-.1,1.08-.1s.77.11,1.27.14.71,0,1.16,0c.88,0,1.38.14,2.25.14,1.28,0,2-.36,3.26-.33.87,0,2.26-.1,2.67.78a1,1,0,0,1,.4.89A2.21,2.21,0,0,1,59,37.4a2,2,0,0,0-.49,2.14A2,2,0,0,1,58.62,41a6.41,6.41,0,0,0,.05.92l0,.1,0,.12C58.8,42.32,58.79,42.43,58.58,42.51Z"></path><path class="cls-4" d="M57.9,42.07a3.87,3.87,0,0,0-.41.21.74.74,0,0,0-.16.12l.15.05a.49.49,0,0,0,.48-.17Zm-1.43-.3-.17,0a.73.73,0,0,0-.23.16C56.49,42.07,56.56,42.1,56.47,41.77Zm1.42-4.65a2.52,2.52,0,0,0,.76-.85.73.73,0,0,1,0-.08c.13-.52.07-1.16-.34-1.36a4.64,4.64,0,0,0-2.06-.26c-1.27,0-2,.32-3.25.33-.87,0-1.37-.13-2.25-.14-.46,0-.72,0-1.18,0s-.75-.13-1.25-.13-.94.1-1.08.1-.27-.16-.49-.07a.51.51,0,0,1-.45,0l-.06,0-.09-.06a.26.26,0,0,0-.24,0l-.11,0-.15,0,.37.16c-.41.27-.48.23-.62.67s-.4.39-.49.75a1.26,1.26,0,0,1-.28.58l-.07.06c-.17.17.13.41.32.36l.27-.07.08,0a.68.68,0,0,1,.66.1l.08.05c.42.19.75-.39,1.59.32a1.68,1.68,0,0,1,.59.93l0,.13a1.14,1.14,0,0,1,.19.18c.3.26.16.41.51.61s.8.44.8.44c-.13.88.14.55.16,1.07a.94.94,0,0,1-.05.28l0,.1a1.62,1.62,0,0,0-.07.44,1.69,1.69,0,0,0-.39.49.55.55,0,0,0,.55-.14l-.11-.37c.12-.08.3-.16.26-.33l0-.13a4,4,0,0,1,.61-2.06,4.11,4.11,0,0,0,.68,1.45l.05.82-.16-.08.14.2-.13.06-.09.2a.48.48,0,0,0,.49,0l-.05-.16a.93.93,0,0,0,.05-.1.19.19,0,0,0,0-.08.54.54,0,0,0-.06-.18l-.07-.18a3.93,3.93,0,0,1-.15-1c0-.31-.15-1-.15-1s.84-.08,1.26-.09,1.58,0,1.58,0l-.28.19c.28-.08.72-.38,1.11-.51a6.06,6.06,0,0,1,1.34-.23,1.58,1.58,0,0,0,.27,1,2.21,2.21,0,0,1,0,2.13l.22,0a7.34,7.34,0,0,1,.42-1.55,9.53,9.53,0,0,0-.1-1l.33-.1s.11.24.22.57a4,4,0,0,1,.24,2.13l.09.11.15,0,.07,0,0-.12A3.87,3.87,0,0,1,58,40.63a1.78,1.78,0,0,0-.12-1.29,1.93,1.93,0,0,1,.13-1.9,2.1,2.1,0,0,1-.72.38,3,3,0,0,1-2.12-.71H55l-.09,0c-.36.12-.57-.15-.6-.48,0-.16,0-.16-.1-.24l-.36-.25.6,0a1.35,1.35,0,0,1,.87.35s1.23.89,1.93.64a2,2,0,0,0,1-1.05l0-.08a.07.07,0,0,1,0,.08l.3-.1a.2.2,0,0,1,0,.17l0,.09A3.27,3.27,0,0,1,57.89,37.12ZM55.5,37a2.49,2.49,0,0,0,1.71.53,1.75,1.75,0,0,0,.43-.2,1.78,1.78,0,0,1-1.73-.11Zm-.59-.16a.8.8,0,0,1,.31,0l-.08-.06a2.32,2.32,0,0,0-.21-.14,1.19,1.19,0,0,0-.25-.13h-.07l0,.18c0,.11,0,.27.19.21Z"></path><polygon class="cls-3" points="52.54 11.53 53.1 12.35 54.75 12.04 54.66 12.53 55.05 12.45 54.76 13.96 55.86 14.72 55.73 14.8 56.14 15.07 54.74 16.03 55.05 17.69 53.39 17.38 52.43 18.78 52.16 18.38 52.08 18.5 51.33 17.41 49.8 17.69 49.9 17.3 49.4 17.39 49.71 15.74 48.89 15.18 48.3 14.72 49.72 13.74 49.4 12.04 51.1 12.36 52.08 10.94 52.5 11.55 52.54 11.53"></polygon><path class="cls-5" d="M51.38,12.57,52,14.06h.18l.6-1.49-.7-1Zm.3,1.62-.62-1.49-1.22-.22.23,1.21,1.48.62Zm-.27.44L49.93,14l-1,.7,1,.69,1.47-.6v-.06A.49.49,0,0,1,51.41,14.63Zm.11.51-1.45.6L49.84,17l1.22-.22.6-1.43A1.07,1.07,0,0,1,51.52,15.14Zm.46.3-.6,1.42.7,1,.7-1-.58-1.42H52Zm.55-.15.57,1.44,1.21.22-.22-1.21-1.42-.6A.67.67,0,0,1,52.53,15.29Zm.26-.48,1.43.6,1-.69-1-.7-1.44.6s0,.08,0,.13Zm-.17-.51,1.47-.61.22-1.21-1.21.22-.59,1.49A.57.57,0,0,1,52.62,14.3Zm-.53,0a.43.43,0,0,0,0,.86.43.43,0,1,0,0-.86Z"></path><path class="cls-3" d="M67.34,42.13A5.4,5.4,0,0,1,66,45a6.17,6.17,0,0,1-3.73,1.9H56.5a5.5,5.5,0,0,0-2,.4,5.36,5.36,0,0,0-1.65,2c-.15-.24-.33-.51-.52-.77l-.16.29a10.55,10.55,0,0,0-1.1-1.55,6.19,6.19,0,0,0-2.28-.38H44.16a5.46,5.46,0,0,1-4.29-1.55,5.46,5.46,0,0,1-1-.86c-1.52-1.71-1.46-2.8-1.42-3V13a3.17,3.17,0,0,0-1.3-2.45l-.24,0a5.27,5.27,0,0,0-2.21,1.3A5.26,5.26,0,0,0,33.11,14V42.24s0,1-1.45,2.75a6,6,0,0,1-3.56,1.87H22.4a5.69,5.69,0,0,0-2,.36,5.6,5.6,0,0,0-1.79,2,8.55,8.55,0,0,0-.51-.78l-.17.28a10.23,10.23,0,0,0-1-1.44l-.1-.06a5.68,5.68,0,0,0-2.16-.36H9.93a6.6,6.6,0,0,1-1.55-.19,5.74,5.74,0,0,1-2.87-1.59,5.68,5.68,0,0,1-.78-.68,4.43,4.43,0,0,1-1.5-3V13A3.21,3.21,0,0,0,.75,10l.1-.51H69.07l0,.1.91.94a5.36,5.36,0,0,0-2,1.4A5.77,5.77,0,0,0,67.33,14V42.13ZM66.25,19.77H38v21.7a1.48,1.48,0,0,0,0,.16,4.64,4.64,0,0,0,1.3,2.46A5,5,0,0,0,43,45.74a3.89,3.89,0,0,0,.41,0h4.63a7.7,7.7,0,0,1,1,.05c1.62.16,2.18.71,3.09,2a3.67,3.67,0,0,1,3.69-2.05h5.78a5.28,5.28,0,0,0,4.49-3.59,3.53,3.53,0,0,0,.18-.74ZM36.15,10A3.53,3.53,0,0,1,38,13v6.24H66.25v-6a7.63,7.63,0,0,1,.15-.86A3.53,3.53,0,0,1,68,10ZM2,10a3.49,3.49,0,0,1,1.78,3V41.45s0,.06,0,.16A4.83,4.83,0,0,0,5.12,44a5.73,5.73,0,0,0,4.13,1.67H14a7.17,7.17,0,0,1,.85,0,3.55,3.55,0,0,1,3.07,2,3.86,3.86,0,0,1,3.82-2h5.66a5.81,5.81,0,0,0,4.49-3.62,2.41,2.41,0,0,0,.16-.6V13.26a6.35,6.35,0,0,1,.12-.87A2.86,2.86,0,0,1,33.88,10H26.07V37.27a5,5,0,0,1-.09.6,2.39,2.39,0,0,1-1.89,1.92h-12a5.86,5.86,0,0,1-.65-.24,2.51,2.51,0,0,1-1.61-2.28V10Z"></path><path class="cls-1" d="M10.32,37.23a2.1,2.1,0,0,0,1.81,2h5.75v-15H10.32Z"></path><path class="cls-3" d="M17,30.27a.47.47,0,0,1-.07.54l.07.72-.44.06H15.42L15,31.53l0-.24-.44-.05.12-.73a.47.47,0,0,1-.11-.41l0-.07a1.08,1.08,0,0,1-.21-.56.48.48,0,0,1,.07-.26c-.11-.76-.29-2.24-.29-2.24l.42.09.3-.22.24.12.24-.15.27.13.26-.14.27.15.26-.1.3.21.45-.1-.09.47.38-.08-.36,2.13,0,.07a.66.66,0,0,1-.11.62Z"></path><path class="cls-6" d="M14.9,29.75h1.49l.05-.07a.37.37,0,0,0,0-.48l.3-1.8-.09,0-.27-.18-.24.09-.25-.14-.26.13-.25-.12-.25.14-.21-.1-.26.18-.1,0c.05.4.15,1.21.24,1.73,0,.18-.08.23-.08.34A.39.39,0,0,0,14.9,29.75Zm1.35.87H15l0,.32.11,0h1.06l.13,0ZM15,30.11c0,.08,0,.11,0,.17h1.36a.19.19,0,0,0,0-.18H15Z"></path><path class="cls-3" d="M15.22,36.09a.47.47,0,0,1-.07.54l.07.71-.44.07H14l-.32,0-.44,0,0-.24-.44-.06.13-.73a.41.41,0,0,1-.11-.4v-.08a1,1,0,0,1-.21-.56.48.48,0,0,1,.07-.26c-.11-.75-.29-2.24-.29-2.24l.42.09.31-.21.23.11.25-.14.26.13.27-.15.27.16.25-.1.31.2.44-.09-.08.47.37-.08-.36,2.12,0,.07a.69.69,0,0,1-.12.63Z"></path><path class="cls-6" d="M13.15,35.57h1.49l0-.08a.37.37,0,0,0,0-.48L15,33.22l-.1,0-.27-.19-.24.1L14.17,33l-.25.14L13.66,33l-.24.14-.22-.11-.26.19-.1,0c.05.39.15,1.2.24,1.73,0,.18-.08.22-.08.33A.4.4,0,0,0,13.15,35.57Zm1.35.87H13.29l0,.32h.11l.3,0h.76l.13,0Zm-1.3-.51c0,.07,0,.11,0,.17h1.36a.17.17,0,0,0,0-.18H13.21Z"></path><path class="cls-3" d="M57.48,30.62a2.2,2.2,0,0,0-.13.57l.11-.05A3.56,3.56,0,0,1,57.48,30.62Zm1.1,1.14.05.17a1.25,1.25,0,0,1-.13.17.8.8,0,0,1-.73.25,1.81,1.81,0,0,1-.63-.36l.08,0L57,31.84c-.28.18-.87,0-1.11-.12l.13-.16a2.82,2.82,0,0,1-.51-.16l.2-.3a1.05,1.05,0,0,1,.46-.37l.07-.14a1.66,1.66,0,0,0-.1-1.52,1.2,1.2,0,0,1-.25-.49,4.52,4.52,0,0,0-1.61.59.86.86,0,0,1-.63.06l-.06,0a.17.17,0,0,1-.12-.18c-.55,0-1.1,0-1.65.07,0,.17.07.45.1.66a3.93,3.93,0,0,0,.14.91l.07.17a.54.54,0,0,1,0,.51l0,.09c.06.33-.35.41-.6.41a1.12,1.12,0,0,1-.56-.24l0-.11-.16-.05-.26-.16.06-.22a1.55,1.55,0,0,1,.19-.36v-.65l-.08-.1-.06-.1a1.83,1.83,0,0,0-.18.95l0,.12a.46.46,0,0,1-.18.52l.08.36-.18.17a1.05,1.05,0,0,1-1.07.1.64.64,0,0,1,0-.14.24.24,0,0,1,0-.08,2.47,2.47,0,0,1-.43-.11,2,2,0,0,1,.08-.31,1.64,1.64,0,0,1,.35-.52l0-.06a2.44,2.44,0,0,1,.07-.39c.18-.5-.18-.45-.12-1.1-.31-.21-.83-.44-1-.76a1.46,1.46,0,0,0-.2-.27l-.05-.06c-.17-.13-.2-.09-.23-.33l0-.12a1.1,1.1,0,0,0-.26-.5c-.57-.45-.87,0-1.37-.19l-.07,0a.44.44,0,0,0-.43-.1l-.08,0a.74.74,0,0,1-1-.21.7.7,0,0,1-.37-.33.54.54,0,0,1,.08-.64l.07-.06c.21-.2.11-.59.5-.95s.14-.43.41-.71a2.5,2.5,0,0,1-.76-.62l.23-.27a2,2,0,0,0,.32.16,1,1,0,0,0,.6.12l.1,0a.58.58,0,0,1,.5,0l.06,0,.08.06c.17.09.3-.17.71,0a.21.21,0,0,0,.1,0c.14,0,.66-.11,1.08-.11s.77.12,1.27.14.71,0,1.16,0c.88,0,1.38.14,2.25.14,1.28,0,2-.36,3.26-.33.87,0,2.26-.1,2.67.78a1,1,0,0,1,.4.89,2.21,2.21,0,0,1-.4,1.51,2,2,0,0,0-.49,2.14,2,2,0,0,1,.16,1.45,6.41,6.41,0,0,0,.05.92l0,.1,0,.12C58.8,31.57,58.79,31.68,58.58,31.76Z"></path><path class="cls-4" d="M56.47,31a1,1,0,0,0-.17,0,.6.6,0,0,0-.23.16C56.49,31.32,56.56,31.35,56.47,31Zm1.43.29-.41.21a.75.75,0,0,0-.16.13l.15.05a.5.5,0,0,0,.48-.18Zm0-4.94a2.54,2.54,0,0,0,.76-.86l0-.07c.13-.52.07-1.16-.34-1.36a4.64,4.64,0,0,0-2.06-.26c-1.27,0-2,.32-3.25.33-.87,0-1.37-.14-2.25-.14-.46,0-.72,0-1.18,0s-.75-.14-1.25-.14-.94.11-1.08.11-.27-.16-.49-.07a.51.51,0,0,1-.45,0l-.06,0-.09-.07a.25.25,0,0,0-.24,0l-.11,0a.57.57,0,0,1-.15,0l.37.17c-.41.27-.48.23-.62.66s-.4.4-.49.76a1.26,1.26,0,0,1-.28.58l-.07.06c-.17.17.13.4.32.36l.27-.07.08,0a.66.66,0,0,1,.66.1l.08.05c.42.19.75-.39,1.59.32a1.68,1.68,0,0,1,.59.93l0,.13a1.14,1.14,0,0,1,.19.18c.3.26.16.4.51.61l.8.44c-.13.88.14.55.16,1.07a1.08,1.08,0,0,1-.05.28l0,.1a1.62,1.62,0,0,0-.07.44,1.65,1.65,0,0,0-.39.48.53.53,0,0,0,.55-.13L49.75,31c.12-.08.3-.16.26-.34l0-.12a3.93,3.93,0,0,1,.61-2.06,4.11,4.11,0,0,0,.68,1.45l.05.82-.16-.08.14.2-.13.05c0,.06-.06.14-.09.21s.38.11.49,0L51.51,31l.05-.09a.19.19,0,0,0,0-.08.54.54,0,0,0-.06-.18l-.07-.18a4,4,0,0,1-.15-1l-.15-1s.84-.07,1.26-.08,1.58,0,1.58,0l-.28.19c.28-.08.72-.39,1.11-.51a6.72,6.72,0,0,1,1.34-.24,1.61,1.61,0,0,0,.27,1,2.21,2.21,0,0,1,0,2.13l.22,0a7.34,7.34,0,0,1,.42-1.55,9.53,9.53,0,0,0-.1-1l.33-.1s.11.24.22.57a4,4,0,0,1,.24,2.13l.09.1.15,0,.07,0,0-.12A3.9,3.9,0,0,1,58,29.88a1.77,1.77,0,0,0-.12-1.29,1.93,1.93,0,0,1,.13-1.9,2.05,2.05,0,0,1-.72.37,2.92,2.92,0,0,1-2.12-.7H55l-.09,0c-.36.12-.57-.15-.6-.48,0-.16,0-.16-.1-.24l-.36-.25.6,0a1.3,1.3,0,0,1,.87.35s1.23.89,1.93.64a2.09,2.09,0,0,0,1-1.05l0-.08a.07.07,0,0,1,0,.08l.3-.1a.2.2,0,0,1,0,.17l0,.09A3.44,3.44,0,0,1,57.89,26.37Zm-2.39-.15a2.44,2.44,0,0,0,1.71.53,1.23,1.23,0,0,0,.43-.2,1.78,1.78,0,0,1-1.73-.11C55.76,26.37,55.62,26.29,55.5,26.22Zm-.59-.15a1.05,1.05,0,0,1,.31,0L55.14,26a2.32,2.32,0,0,0-.21-.14,1.19,1.19,0,0,0-.25-.13h-.07l0,.18c0,.11,0,.26.19.21Z"></path><path class="cls-3" d="M24.14,41.14h.22l.24,1,.19.22.07.07a1,1,0,0,1,.12.19l.12.13.06.07c.38.48.26.82-.17,1.17-.08.73-.42.92-1.13.84a1.21,1.21,0,0,1-.74.4,1.21,1.21,0,0,1-.73-.4c-.44.1-.81.1-1-.3-.31-.09-.47-.35-.53-.83l-.1-.07c-.49-.35-.34-.9,0-1.29l.47-.51.26-1.08.71,0a.73.73,0,0,1,1.09,0l.75,0Z"></path><path class="cls-5" d="M23.08,41a.51.51,0,0,0-.13-.09.32.32,0,0,0-.29-.06l-.32.23c-.09.08-.1.2-.16.26s-.32-.06-.27-.24h-.13l-.22.92-.53.58c-.23.25-.39.55-.06.77l.49-.73.29.2-.55.82c.06.55.2.64.74.52l.2-1.24.34.06-.2,1.28a1,1,0,0,0,.5.3,1,1,0,0,0,.5-.29L23,43l.34-.07.27,1.27c.51.05.65,0,.72-.55l-.6-.79.28-.21.53.7c.25-.24.25-.44,0-.71L24,42l-.22-.92h-.16l-.3.18a.44.44,0,0,0-.15-.22Z"></path><path class="cls-3" d="M13.47,30.27a.45.45,0,0,1-.07.54l.07.72-.44.06h-1.1l-.44-.06,0-.24-.45-.05.13-.73a.44.44,0,0,1-.11-.41l0-.07a1.1,1.1,0,0,1-.22-.56.48.48,0,0,1,.07-.26c-.11-.76-.29-2.24-.29-2.24l.42.09.31-.22.23.12.25-.15.26.13.27-.14.27.15.25-.1.31.21.44-.1-.08.47.37-.08-.36,2.13,0,.07a.67.67,0,0,1-.12.62Z"></path><path class="cls-6" d="M11.41,29.75h1.48l0-.07a.37.37,0,0,0,0-.48l.31-1.8-.09,0-.28-.18-.24.09-.25-.14-.25.13-.26-.12-.24.14-.22-.1-.26.18-.1,0c.05.4.16,1.21.25,1.73,0,.18-.09.23-.09.34A.37.37,0,0,0,11.41,29.75Zm1.34.87h-1.2l-.06.32.11,0h1.06l.14,0Zm-1.29-.51c0,.08,0,.11,0,.17h1.36a.17.17,0,0,0,0-.18H11.46Z"></path><path class="cls-3" d="M14.45,41.14h.21l.24,1,.2.22.06.07a1,1,0,0,1,.12.19l.13.13.06.07c.37.48.25.82-.18,1.17-.08.73-.42.92-1.12.84a1.24,1.24,0,0,1-.74.4,1.19,1.19,0,0,1-.73-.4c-.44.1-.82.1-1-.3-.3-.09-.47-.35-.52-.83l-.11-.07c-.48-.35-.34-.9,0-1.29l.47-.51.26-1.08.72,0a.72.72,0,0,1,1.08,0l.75,0Z"></path><path class="cls-5" d="M13.39,41l-.13-.09a.33.33,0,0,0-.29-.06l-.33.23c-.09.08-.09.2-.16.26s-.32-.06-.26-.24h-.14l-.22.92-.53.58c-.23.25-.39.55-.06.77l.5-.73.29.2-.56.82c.06.55.2.64.74.52l.2-1.24.35.06-.21,1.28c.11.1.33.3.5.3a.94.94,0,0,0,.5-.29L13.31,43l.35-.07.26,1.27c.51.05.66,0,.72-.55l-.59-.79.28-.21.52.7c.26-.24.25-.44,0-.71L14.3,42l-.23-.92h-.15l-.31.18a.44.44,0,0,0-.15-.22Z"></path><path class="cls-3" d="M30.48,36h.21l.24,1,.2.22a.23.23,0,0,1,.06.07l.13.18.12.14a.23.23,0,0,1,.06.07c.38.48.25.82-.17,1.17-.09.73-.42.92-1.13.83a1.2,1.2,0,0,1-.74.41,1.21,1.21,0,0,1-.73-.4c-.44.1-.81.1-1-.31-.3-.08-.46-.35-.52-.83l-.1-.06c-.49-.35-.35-.9,0-1.29l.47-.51.26-1.08.71,0a.73.73,0,0,1,1.09,0l.75,0Z"></path><path class="cls-5" d="M29.42,35.84l-.13-.1a.32.32,0,0,0-.29-.05l-.32.22c-.1.08-.1.21-.17.27s-.31-.06-.26-.24h-.13l-.22.92-.53.58c-.24.25-.39.55-.06.77l.49-.73.29.2-.55.82c.06.54.2.64.74.52l.19-1.24.35.06-.2,1.28a1,1,0,0,0,.5.3,1,1,0,0,0,.5-.29l-.27-1.31.34-.07L30,39c.51,0,.65,0,.72-.55l-.6-.79.28-.21.53.7c.25-.25.25-.44,0-.71l-.54-.6-.22-.92H30l-.31.17a.45.45,0,0,0-.15-.21Z"></path><polygon class="cls-3" points="61.64 11.53 62.2 12.35 63.85 12.04 63.76 12.53 64.15 12.45 63.86 13.96 64.96 14.72 64.83 14.8 65.23 15.07 63.84 16.03 64.15 17.69 62.49 17.38 61.53 18.78 61.26 18.38 61.17 18.5 60.43 17.41 58.9 17.69 58.99 17.3 58.5 17.39 58.81 15.74 57.98 15.18 57.39 14.72 58.82 13.74 58.5 12.04 60.2 12.36 61.17 10.94 61.6 11.55 61.64 11.53"></polygon><path class="cls-5" d="M60.48,12.57l.62,1.49h.18l.6-1.49-.7-1Zm.29,1.62-.62-1.49-1.21-.22.22,1.21,1.49.62Zm-.26.44L59,14l-1,.7,1,.69,1.47-.6v-.06A.49.49,0,0,1,60.51,14.63Zm.11.51-1.46.6L58.94,17l1.21-.22.61-1.43A.7.7,0,0,1,60.62,15.14Zm.46.3-.6,1.42.7,1,.7-1-.58-1.42h-.22Zm.54-.15.58,1.44,1.21.22-.22-1.21-1.42-.6A.54.54,0,0,1,61.62,15.29Zm.26-.48,1.44.6,1-.69-1-.7-1.44.6s0,.08,0,.13Zm-.16-.51,1.47-.61.22-1.21-1.21.22-.6,1.49A.43.43,0,0,1,61.72,14.3Zm-.53,0a.43.43,0,1,0,.43.43A.43.43,0,0,0,61.19,14.32Z"></path><path class="cls-3" d="M30.48,28.36h.21l.24,1,.2.21.06.08.13.18.12.14a.23.23,0,0,1,.06.07c.38.47.25.81-.17,1.17-.09.72-.42.91-1.13.83a1.24,1.24,0,0,1-.74.4,1.16,1.16,0,0,1-.73-.4c-.44.1-.81.11-1-.3-.3-.08-.46-.35-.52-.83l-.1-.07c-.49-.35-.35-.89,0-1.28l.47-.52L27.84,28l.71,0a.73.73,0,0,1,1.09,0l.75,0Z"></path><path class="cls-5" d="M29.42,28.19l-.13-.09a.29.29,0,0,0-.29-.05l-.32.22c-.1.08-.1.2-.17.26s-.31-.05-.26-.24h-.13l-.22.91-.53.59c-.24.24-.39.54-.06.77l.49-.73.29.19-.55.82c.06.55.2.65.74.53l.19-1.24.35.05-.2,1.29a1,1,0,0,0,.5.3c.17,0,.39-.2.5-.3l-.27-1.31.34-.07L30,31.38c.51,0,.65,0,.72-.55l-.6-.79.28-.22.53.7c.25-.24.25-.43,0-.71l-.54-.6-.22-.91H30l-.31.17a.48.48,0,0,0-.15-.22Z"></path><path class="cls-3" d="M30.48,20.71h.21l.24,1,.2.22a.23.23,0,0,1,.06.07l.13.18.12.14.06.07c.38.48.25.82-.17,1.17-.09.73-.42.92-1.13.84a1.24,1.24,0,0,1-.74.4,1.21,1.21,0,0,1-.73-.4c-.44.1-.81.1-1-.31-.3-.08-.46-.35-.52-.82l-.1-.07c-.49-.35-.35-.9,0-1.29l.47-.51.26-1.08.71,0a.73.73,0,0,1,1.09,0l.75.05Z"></path><path class="cls-5" d="M29.42,20.55l-.13-.09A.3.3,0,0,0,29,20.4l-.32.23c-.1.08-.1.2-.17.26s-.31-.06-.26-.24h-.13l-.22.92-.53.58c-.24.25-.39.55-.06.77l.49-.73.29.2-.55.82c.06.55.2.64.74.52l.19-1.24.35.06-.2,1.28a1,1,0,0,0,.5.3,1,1,0,0,0,.5-.29l-.27-1.31.34-.07L30,23.74c.51,0,.65,0,.72-.56l-.6-.79.28-.21.53.7c.25-.24.25-.44,0-.71l-.54-.6-.22-.92H30l-.31.18a.44.44,0,0,0-.15-.22Z"></path><path class="cls-3" d="M30.48,13.07h.21l.24,1,.2.21.06.08.13.18.12.14a.23.23,0,0,1,.06.07c.38.48.25.82-.17,1.17-.09.72-.42.91-1.13.83a1.2,1.2,0,0,1-.74.41,1.18,1.18,0,0,1-.73-.41c-.44.1-.81.11-1-.3-.3-.08-.46-.35-.52-.83l-.1-.07c-.49-.34-.35-.89,0-1.28l.47-.52.26-1.08.71,0a.73.73,0,0,1,1.09,0l.75,0Z"></path><path class="cls-5" d="M29.42,12.9l-.13-.09a.29.29,0,0,0-.29-.05l-.32.22c-.1.08-.1.2-.17.26s-.31-.05-.26-.24h-.13l-.22.91-.53.59c-.24.24-.39.54-.06.77l.49-.73.29.19-.55.83c.06.54.2.64.74.52l.19-1.24.35.05-.2,1.29a1,1,0,0,0,.5.3c.17,0,.39-.2.5-.3l-.27-1.31.34-.07L30,16.09c.51,0,.65,0,.72-.55l-.6-.79.28-.21.53.69c.25-.24.25-.43,0-.71l-.54-.6L30.11,13H30l-.31.17a.41.41,0,0,0-.15-.21Z"></path><polygon class="cls-3" points="43.44 11.53 44 12.35 45.65 12.04 45.56 12.53 45.95 12.45 45.66 13.96 46.76 14.72 46.63 14.8 47.04 15.07 45.64 16.03 45.95 17.69 44.29 17.38 43.33 18.78 43.06 18.38 42.98 18.5 42.23 17.41 40.7 17.69 40.8 17.3 40.3 17.39 40.61 15.74 39.79 15.18 39.2 14.72 40.62 13.74 40.3 12.04 42 12.36 42.98 10.94 43.4 11.55 43.44 11.53"></polygon><path class="cls-5" d="M42.28,12.57l.62,1.49h.18l.6-1.49-.7-1Zm.3,1.62L42,12.7l-1.21-.22L41,13.69l1.48.62Zm-.27.44L40.83,14l-1,.7,1,.69,1.47-.6v-.06A.49.49,0,0,1,42.31,14.63Zm.11.51-1.45.6L40.74,17,42,16.73l.6-1.43A1.07,1.07,0,0,1,42.42,15.14Zm.47.3-.61,1.42.7,1,.7-1-.58-1.42h-.21Zm.53-.15L44,16.73l1.21.22L45,15.74l-1.42-.6A.54.54,0,0,1,43.42,15.29Zm.27-.48,1.43.6,1-.69-1-.7-1.44.6s0,.08,0,.13Zm-.16-.51L45,13.69l.22-1.21L44,12.7l-.59,1.49Zm-.54,0a.43.43,0,0,0,0,.86.43.43,0,1,0,0-.86Z"></path><path class="cls-3" d="M8.11,36h.21l.24,1,.2.22.06.07a.94.94,0,0,1,.12.18l.13.14.06.07c.38.48.25.82-.18,1.17-.08.73-.41.92-1.12.83a1.2,1.2,0,0,1-.74.41,1.19,1.19,0,0,1-.73-.4c-.44.1-.82.1-1-.31-.3-.08-.47-.35-.52-.83l-.11-.06c-.48-.35-.34-.9,0-1.29l.47-.51.27-1.08.71,0a.72.72,0,0,1,1.08,0l.75,0Z"></path><path class="cls-5" d="M7.05,35.84l-.13-.1a.32.32,0,0,0-.29-.05l-.33.22c-.09.08-.09.21-.16.27s-.31-.06-.26-.24H5.75l-.23.92L5,37.44c-.23.25-.39.55-.06.77l.5-.73.29.2-.56.82c.06.54.21.64.74.52l.2-1.24.35.06-.21,1.28c.11.1.34.3.51.3a1,1,0,0,0,.5-.29L7,37.82l.34-.07L7.58,39c.52,0,.66,0,.73-.55l-.6-.79L8,37.47l.52.7c.26-.25.26-.44,0-.71L8,36.86l-.22-.92H7.58l-.31.17a.45.45,0,0,0-.15-.21Z"></path><path class="cls-3" d="M8.11,28.36h.21l.24,1,.2.21.06.08a.94.94,0,0,1,.12.18l.13.14.06.07c.38.47.25.81-.18,1.17-.08.72-.41.91-1.12.83a1.24,1.24,0,0,1-.74.4,1.14,1.14,0,0,1-.73-.4c-.44.1-.82.11-1-.3-.3-.08-.47-.35-.52-.83l-.11-.07c-.48-.35-.34-.89,0-1.28L5.2,29,5.47,28l.71,0a.72.72,0,0,1,1.08,0L8,28Z"></path><path class="cls-5" d="M7.05,28.19l-.13-.09a.3.3,0,0,0-.29-.05l-.33.22c-.09.08-.09.2-.16.26s-.31-.05-.26-.24H5.75l-.23.91L5,29.8c-.23.24-.39.54-.06.77l.5-.73.29.19-.56.82c.06.55.21.65.74.53l.2-1.24.35.05-.21,1.29c.11.1.34.3.51.3s.39-.2.5-.3L7,30.17l.34-.07.26,1.28c.52,0,.66,0,.73-.55L7.71,30,8,29.82l.52.7c.26-.24.26-.43,0-.71L8,29.21l-.22-.91H7.58l-.31.17a.48.48,0,0,0-.15-.22Z"></path><path class="cls-3" d="M8.11,20.71h.21l.24,1,.2.22.06.07.12.18.13.14.06.07c.38.48.25.82-.18,1.17-.08.73-.41.92-1.12.84a1.24,1.24,0,0,1-.74.4,1.19,1.19,0,0,1-.73-.4c-.44.1-.82.1-1-.31-.3-.08-.47-.35-.52-.82l-.11-.07c-.48-.35-.34-.9,0-1.29l.47-.51.27-1.08.71,0a.72.72,0,0,1,1.08,0l.75.05Z"></path><path class="cls-5" d="M7.05,20.55l-.13-.09a.3.3,0,0,0-.29-.06l-.33.23c-.09.08-.09.2-.16.26s-.31-.06-.26-.24H5.75l-.23.92L5,22.15c-.23.25-.39.55-.06.77l.5-.73.29.2-.56.82c.06.55.21.64.74.52l.2-1.24.35.06-.21,1.28c.11.1.34.3.51.3a1,1,0,0,0,.5-.29L7,22.53l.34-.07.26,1.28c.52,0,.66,0,.73-.56l-.6-.79L8,22.18l.52.7c.26-.24.26-.44,0-.71L8,21.57l-.22-.92H7.58l-.31.18a.44.44,0,0,0-.15-.22Z"></path><path class="cls-3" d="M8.11,13.07h.21l.24,1,.2.21.06.08a.94.94,0,0,1,.12.18l.13.14.06.07c.38.48.25.82-.18,1.17-.08.72-.41.91-1.12.83a1.2,1.2,0,0,1-.74.41,1.15,1.15,0,0,1-.73-.41c-.44.1-.82.11-1-.3-.3-.08-.47-.35-.52-.83l-.11-.07c-.48-.34-.34-.89,0-1.28l.47-.52.27-1.08.71,0a.72.72,0,0,1,1.08,0l.75,0Z"></path><path class="cls-5" d="M7.05,12.9l-.13-.09a.3.3,0,0,0-.29-.05L6.3,13c-.09.08-.09.2-.16.26s-.31-.05-.26-.24H5.75l-.23.91L5,14.51c-.23.24-.39.54-.06.77l.5-.73.29.19-.56.83c.06.54.21.64.74.52l.2-1.24.35.05-.21,1.29c.11.1.34.3.51.3s.39-.2.5-.3L7,14.88l.34-.07.26,1.28c.52,0,.66,0,.73-.55l-.6-.79L8,14.54l.52.69c.26-.24.26-.43,0-.71L8,13.92,7.74,13H7.58l-.31.17A.41.41,0,0,0,7.12,13Z"></path><polygon class="cls-4" points="25.55 10 22.89 10 17.94 14.96 12.97 10 10.31 10 10.31 12.65 14.53 16.89 10.31 21.08 10.31 23.73 12.95 23.73 17.94 18.78 22.91 23.73 25.55 23.73 25.55 21.1 21.31 16.89 25.55 12.66 25.55 10"></polygon><path class="cls-1" d="M18.41,39.27H24a1.94,1.94,0,0,0,1.55-2v-13H18.41Z"></path><path class="cls-3" d="M20.15,31.23a.5.5,0,0,1-.3-.24.36.36,0,0,1,0-.07c-.45-.17-.58-.61-.31-1.12-.7-.49-.77-1-.11-1.56a1,1,0,0,1,.52-1.69c-.08-.85.5-1.12,1.24-1a1.16,1.16,0,0,1,1.86,0c.5-.24.95-.09,1.07.35l.08.05a.57.57,0,0,1,.25.5.88.88,0,0,1,.37.44.79.79,0,0,1,.32.43,1.14,1.14,0,0,1-.26,1,1.23,1.23,0,0,1,.45,1,.92.92,0,0,1-.61.82c.32.57.19,1.2-.53,1.29h-.24c0,.81-.38,1-1.11.73a15.94,15.94,0,0,0,.07,2.49,1.94,1.94,0,0,0,.33,1,4.61,4.61,0,0,0,.64.57l.93.7-.06.12.38.27-.11.23a11.18,11.18,0,0,1-1.1-.37,2.89,2.89,0,0,1-.67-.36l-.06,0a.5.5,0,0,0,.05.13l.27.79-.22.14-.34-.36a3.56,3.56,0,0,1-.59-.56l-.12-.18a7.2,7.2,0,0,0-.71.89,10.39,10.39,0,0,1-1.05,1l-.2-.16.28-.54-.39.37-.27-.21.34-.66.27-.44a10.5,10.5,0,0,1-1.13.4l-.11-.23.58-.36c-.26.1-.52.19-.8.27l-.14-.31.74-.46a6.73,6.73,0,0,0,.59-.38c1.21-.89,1-1.31,1.14-2.61,0-.29,0-.66.06-1-.34.07-.7.06-.82-.31C20.29,31.94,20.12,31.69,20.15,31.23Z"></path><path class="cls-6" d="M20.73,37.23C21,37,21.6,36,21.88,35.92s.54.5.74.72l0-.07a.35.35,0,0,1,0-.12c0-.37.23-.47.51-.27a3.19,3.19,0,0,0,.58.3s-.23-.18-.47-.4c-1-1-.92-1.45-1-2.73-.06-.68,0-2,0-2,.88.46,1.2.53,1.06-.58.2,0,.78.09.9-.15.26-.51-.29-1-.57-1.27l.63.16c.49,0,.67-.9,0-1.38L24.06,28c.22-.24.51-.59.41-1s-.52-.42-.81-.46c.05-.16.21-.6,0-.74s-.62.1-.83.26c0,0-.07-.28-.08-.3-.22-.51-1.1-.42-1.35.06l-.07.12c-.21-.06-.72-.18-.9,0s-.16.64-.06,1c-.34,0-.73-.08-.84.39s.09.7.54.88c-.89.61-1.15.89-.06,1.5-.63.83-.18,1,.65.92-.08.22-.27.8-.09,1s1-.17,1.2-.29c0,0,0,1.34-.07,2-.14,1.31,0,1.82-1.16,2.75.16-.08.6-.34.79-.15s-.38.86-.52,1.16Z"></path><path class="cls-5" d="M18.15,19.48l-4.31,4.26h8.57Zm-7.83,1.11L14,16.89l-3.71-3.74Zm15.23-7L22,17.1l3.53,3.51ZM22.39,10H13.47l4.47,4.47Z"></path><path class="cls-3" d="M37.38,54.67h-4.2v2.12a.84.84,0,0,1,0,.2.85.85,0,0,1-.77.64H5.1v2.08a.84.84,0,0,1-.81.82H.83V60H0V53.46H3.11v-2a1.08,1.08,0,0,1,.27-.7,1,1,0,0,1,.6-.27H31.21v-2a1,1,0,0,1,.73-.92l.16,0h5.79a1,1,0,0,1,.88.79.84.84,0,0,1,.59.79v1.37H66a1.13,1.13,0,0,1,.6.27,1.16,1.16,0,0,1,.25.51,1.15,1.15,0,0,1,.35.2,1,1,0,0,1,.24.56v1.38H70v.75h.56v6.32H67.11a.84.84,0,0,1-.2,0,.82.82,0,0,1-.56-.46l-.18,0a1,1,0,0,1-.71-.93V57.63H39a.81.81,0,0,1-.72-.49,1,1,0,0,1-.92-1Z"></path><path class="cls-5" d="M32.08,56.21l-.87-2V51.06H4a.5.5,0,0,0-.28.12.62.62,0,0,0-.12.3v5.13h28A.44.44,0,0,0,32.08,56.21ZM66.89,54v3.15l-.9,2a.45.45,0,0,0,.42.38h3.06V54Zm-.65,3.15H66v.61Zm-62.48,0,.25.61v-.61Zm.25,2-.82-2H3.11V54H.52v5.54H3.59l.1,0A.44.44,0,0,0,4,59.14Zm28.05-11a.44.44,0,0,0-.33.41v5.12h6.53v-5.1a.48.48,0,0,0,0-.12.41.41,0,0,0-.4-.32H32.06Zm5.85,8a.49.49,0,0,0,0,.14.44.44,0,0,0,.36.33H66.36V51.48a.47.47,0,0,0-.12-.3.55.55,0,0,0-.28-.12H38.79v3.12Zm.23-2h-.23v.6Zm-6.29,0h.24v.6Z"></path><path class="cls-3" d="M8.75,55.39a.66.66,0,0,0,.28-.1c.06-.06.18-.2.37-.44l.7-.91-.5-.76a4.71,4.71,0,0,0-.45-.61.55.55,0,0,0-.35-.13v-.09h1.35v.09l-.25,0a.12.12,0,0,0-.09.13.41.41,0,0,0,0,.16l.07.1.46.71.51-.65a1.45,1.45,0,0,0,.15-.23.16.16,0,0,0,0-.09.13.13,0,0,0-.1-.13.51.51,0,0,0-.21,0v-.09h1.06v.09a.9.9,0,0,0-.28.06,1.55,1.55,0,0,0-.38.39l-.66.85.86,1.3a.68.68,0,0,0,.23.26.71.71,0,0,0,.26.09v.08H10.53v-.09a.79.79,0,0,0,.26,0,.12.12,0,0,0,.08-.12.67.67,0,0,0-.1-.24c-.07-.12-.25-.41-.56-.88l-.53.7L9.52,55a.35.35,0,0,0-.07.17.16.16,0,0,0,.11.14.88.88,0,0,0,.23,0v.08h-1Zm5.73-3v.09a.67.67,0,0,0-.34.09.52.52,0,0,0-.07.34v1.5a1.5,1.5,0,0,0,.09.58.69.69,0,0,0,.68.38.74.74,0,0,0,.74-.39,1.62,1.62,0,0,0,.1-.67V53.05a.9.9,0,0,0-.08-.48.52.52,0,0,0-.34-.13v-.09h1v.09a.49.49,0,0,0-.34.14.88.88,0,0,0-.08.47v1.22a1.79,1.79,0,0,1-.14.77,1,1,0,0,1-1,.5,1,1,0,0,1-1-.5,1.55,1.55,0,0,1-.14-.7V52.87c0-.18,0-.29-.07-.33a.6.6,0,0,0-.33-.1v-.09Zm1.95,3a.62.62,0,0,0,.36-.13,1,1,0,0,0,.07-.48V52.87a.52.52,0,0,0-.07-.34.59.59,0,0,0-.35-.09v-.09h.89l1,2.38,1-2.38h.89v.09a.52.52,0,0,0-.32.1.5.5,0,0,0-.07.33V55a.5.5,0,0,0,.07.33.59.59,0,0,0,.32.1v.08H19v-.08c.18,0,.29,0,.33-.1a.64.64,0,0,0,.07-.38V52.79l-1.14,2.68h-.06L17.06,52.9v1.88a.77.77,0,0,0,.11.5c0,.06.15.09.31.11v.08H16.43Zm5.84-.23a.58.58,0,0,0,.23-.54.56.56,0,0,0-.27-.54,1.54,1.54,0,0,0-.69-.14h-.22v1.17a.17.17,0,0,0,.07.16.88.88,0,0,0,.3,0A1.06,1.06,0,0,0,22.27,55.16Zm-1.83.23a.62.62,0,0,0,.35-.09.5.5,0,0,0,.08-.34V52.87a.5.5,0,0,0-.08-.34.62.62,0,0,0-.35-.09v-.09h1.25a1.7,1.7,0,0,1,.85.19.66.66,0,0,1,.32.62.61.61,0,0,1-.22.51.91.91,0,0,1-.37.16,1.28,1.28,0,0,1,.52.26.65.65,0,0,1,.22.52.75.75,0,0,1-.48.75,1.48,1.48,0,0,1-.63.11H20.44Zm1.68-1.72a.49.49,0,0,0,.29-.49.57.57,0,0,0-.33-.57,1.52,1.52,0,0,0-.55-.08.57.57,0,0,0-.18,0,.22.22,0,0,0,0,.14v1.07h.43A.81.81,0,0,0,22.12,53.67Zm2.81.08a.57.57,0,0,0,.35-.58.56.56,0,0,0-.32-.56,1.1,1.1,0,0,0-.45-.08.5.5,0,0,0-.23,0s0,.07,0,.14v1.16A2,2,0,0,0,24.93,53.75ZM23.4,55.39a.49.49,0,0,0,.32-.11.72.72,0,0,0,.06-.37v-2a.5.5,0,0,0-.07-.33.55.55,0,0,0-.31-.1v-.09h1.24a1.71,1.71,0,0,1,.64.11.71.71,0,0,1,.49.72.67.67,0,0,1-.22.54A1.11,1.11,0,0,1,25,54l.92,1.19a.61.61,0,0,0,.17.16.48.48,0,0,0,.22.07v.08h-.72L24.48,54h-.24V55a.52.52,0,0,0,.07.34.73.73,0,0,0,.33.09v.08H23.4Zm4.8-1.13L27.68,53l-.51,1.3Zm-1.94,1.21v-.08a.37.37,0,0,0,.26-.14,3.61,3.61,0,0,0,.3-.64l.93-2.31h.09L29,55a1.36,1.36,0,0,0,.18.33.5.5,0,0,0,.23.09v.08H28.22v-.08a.74.74,0,0,0,.25,0s.06-.06.06-.13a.49.49,0,0,0,0-.12.64.64,0,0,0-.06-.18l-.18-.46H27.09q-.18.46-.21.57a.73.73,0,0,0,0,.16.17.17,0,0,0,.1.17l.21,0v.08Zm6.3-3.16a.77.77,0,0,0,.37-.08c.06,0,.09-.16.09-.34v-2.1a.43.43,0,0,0-.09-.33.65.65,0,0,0-.37-.09v-.09H34v.09a.67.67,0,0,0-.37.09.43.43,0,0,0-.09.33v2.1c0,.18,0,.3.09.34a.8.8,0,0,0,.37.08v.09H32.56Zm1.54,0a.58.58,0,0,0,.38-.12,1,1,0,0,0,.08-.48V49.63l-.06-.07a.37.37,0,0,0-.18-.15.57.57,0,0,0-.22,0v-.09h.81l1.82,2.27V50a.74.74,0,0,0-.12-.5.6.6,0,0,0-.33-.1v-.09h1.1v.09a.5.5,0,0,0-.35.13.72.72,0,0,0-.1.47v2.49h-.08l-2.08-2.59v1.84a.79.79,0,0,0,.11.5.53.53,0,0,0,.33.1v.09H34.1Zm10.12,2.15a1.78,1.78,0,0,0,.28.5.89.89,0,0,0,.7.33.55.55,0,0,0,.39-.14.49.49,0,0,0,.16-.4.57.57,0,0,0-.16-.4,2.5,2.5,0,0,0-.46-.32l-.4-.25a1.47,1.47,0,0,1-.29-.23.71.71,0,0,1-.2-.5.82.82,0,0,1,.86-.83,1.29,1.29,0,0,1,.39.08,1.1,1.1,0,0,0,.26.08c.06,0,.1,0,.12,0a.33.33,0,0,0,.05-.12H46l.1,1H46a1.07,1.07,0,0,0-.37-.63.85.85,0,0,0-.5-.18.52.52,0,0,0-.34.12.38.38,0,0,0-.14.31.47.47,0,0,0,.11.31,1.49,1.49,0,0,0,.34.28l.41.25a2.13,2.13,0,0,1,.55.44.75.75,0,0,1,.16.48.77.77,0,0,1-.28.62,1,1,0,0,1-.71.25,1.54,1.54,0,0,1-.46-.08l-.27-.09c-.06,0-.1,0-.11.05a.25.25,0,0,0,0,.11h-.11l-.14-1Zm3.57.49a.9.9,0,0,0,.72.35.88.88,0,0,0,.7-.34,1.67,1.67,0,0,0,.3-1.11,1.64,1.64,0,0,0-.3-1.11.9.9,0,0,0-.7-.35.88.88,0,0,0-.72.36,1.66,1.66,0,0,0-.29,1.1A1.68,1.68,0,0,0,47.79,55Zm-.35-2.31a1.47,1.47,0,0,1,1.07-.42,1.49,1.49,0,0,1,1.07.42,1.62,1.62,0,0,1,.47,1.21,1.57,1.57,0,0,1-.49,1.22,1.59,1.59,0,0,1-2.16,0A1.62,1.62,0,0,1,47,53.85,1.59,1.59,0,0,1,47.44,52.64Zm3.12,2.68a.84.84,0,0,0,.34-.09A.5.5,0,0,0,51,54.9V52.8a.5.5,0,0,0-.07-.33.58.58,0,0,0-.34-.09v-.09h1.33v.09a.66.66,0,0,0-.35.08.39.39,0,0,0-.09.31V55a.28.28,0,0,0,0,.13.23.23,0,0,0,.12.05h.33a2.31,2.31,0,0,0,.85-.1,1.16,1.16,0,0,0,.43-.53h.11l-.22.82H50.56Zm3.16,0a.79.79,0,0,0,.34-.09.5.5,0,0,0,.07-.33V52.8a.5.5,0,0,0-.07-.33.55.55,0,0,0-.34-.09v-.09h2.51V53h-.12a.68.68,0,0,0-.18-.41,1,1,0,0,0-.53-.09h-.64a.19.19,0,0,0-.13,0s0,.07,0,.13v1h.72c.2,0,.33,0,.38-.09a.78.78,0,0,0,.14-.37H56v1.1h-.11a.69.69,0,0,0-.14-.36c0-.07-.18-.09-.38-.09h-.72V55c0,.09,0,.15.08.17a2.94,2.94,0,0,0,.53,0,1.81,1.81,0,0,0,.71-.1,1,1,0,0,0,.41-.51h.13l-.21.8H53.72Zm3.16,0a.57.57,0,0,0,.38-.13,1,1,0,0,0,.08-.48V52.8a.49.49,0,0,0-.08-.33.65.65,0,0,0-.37-.09v-.09h.94l1.09,2.37,1-2.37h.94v.09a.55.55,0,0,0-.34.09.49.49,0,0,0-.08.33v2.1a.49.49,0,0,0,.08.33.63.63,0,0,0,.34.09v.09H59.58v-.09a.55.55,0,0,0,.35-.1.62.62,0,0,0,.07-.38V52.72l-1.2,2.69h-.07l-1.18-2.58v1.88a.83.83,0,0,0,.11.51.6.6,0,0,0,.33.1v.09H56.88ZM6,55.39a.72.72,0,0,0,.32-.09A.52.52,0,0,0,6.41,55V52.87a.5.5,0,0,0-.07-.33.5.5,0,0,0-.32-.1v-.09H8.4V53H8.3a.72.72,0,0,0-.17-.41,1.06,1.06,0,0,0-.51-.09H7a.17.17,0,0,0-.12,0,.29.29,0,0,0,0,.12v1.06h.69q.29,0,.36-.09a.74.74,0,0,0,.13-.37h.11v1.09H8.05A.8.8,0,0,0,7.92,54q-.07-.09-.36-.09H6.87V55.1c0,.09,0,.15.08.16a2.38,2.38,0,0,0,.51,0,1.63,1.63,0,0,0,.67-.11,1,1,0,0,0,.39-.5h.12l-.2.79H6Z"></path><rect class="cls-7" x="268.51" y="9.73" width="0.83" height="50.66"></rect><path class="cls-8" d="M285,27.34V19.68h2.1a2.5,2.5,0,0,1,2,.92,3.57,3.57,0,0,1,.77,2.37v1.09a3.57,3.57,0,0,1-.77,2.37,2.5,2.5,0,0,1-2,.91Zm1.07-6.85v6h1a1.46,1.46,0,0,0,1.27-.69,3.15,3.15,0,0,0,.46-1.79V23a3.1,3.1,0,0,0-.46-1.77,1.46,1.46,0,0,0-1.27-.69Z"></path><path class="cls-8" d="M295,23.78h-2.84v2.75h3.29v.81h-4.36V19.68h4.33v.81h-3.26V23H295Z"></path><path class="cls-8" d="M297.5,24.31v3h-1.07V19.68H299a2.21,2.21,0,0,1,1.68.64,2.29,2.29,0,0,1,.61,1.67,2.3,2.3,0,0,1-.61,1.68,2.21,2.21,0,0,1-1.68.64Zm0-.81H299a1,1,0,0,0,.91-.43,1.74,1.74,0,0,0,.31-1.07,1.79,1.79,0,0,0-.31-1.08,1,1,0,0,0-.91-.43H297.5Z"></path><path class="cls-8" d="M305.15,25.4H302.7l-.55,1.94h-1.09l2.36-7.66h1l2.34,7.66H305.7Zm-2.2-.84h1.95L304,21.21h0Z"></path><path class="cls-8" d="M308.71,24v3.3h-1.06V19.68H310a2.35,2.35,0,0,1,1.69.57,2.12,2.12,0,0,1,.59,1.61,1.92,1.92,0,0,1-.28,1.05,1.86,1.86,0,0,1-.79.7,1.38,1.38,0,0,1,.82.66,2.25,2.25,0,0,1,.26,1.15v.67a2.7,2.7,0,0,0,.07.65,1,1,0,0,0,.25.48v.12h-1.1a.84.84,0,0,1-.23-.52,4.45,4.45,0,0,1-.05-.74v-.65a1.59,1.59,0,0,0-.3-1,1,1,0,0,0-.8-.37Zm0-.81H310a1.2,1.2,0,0,0,.95-.35,1.46,1.46,0,0,0,.31-1,1.55,1.55,0,0,0-.3-1,1.12,1.12,0,0,0-.91-.37h-1.32Z"></path><path class="cls-8" d="M317.78,20.49h-2v6.85h-1.07V20.49h-2v-.81h5Z"></path><path class="cls-8" d="M321.77,25.4h-2.44l-.56,1.94h-1.09L320,19.68h1l2.34,7.66h-1.08Zm-2.2-.84h2l-1-3.35h0Z"></path><path class="cls-8" d="M325.62,19.68l1.79,6.25h0l1.79-6.25h1.38v7.66h-1.06V24.4l.1-2.95h0l-1.85,5.89h-.7l-1.84-5.89h0l.1,2.94v2.94h-1.06V19.68Z"></path><path class="cls-8" d="M336,23.78h-2.84v2.75h3.3v.81h-4.37V19.68h4.34v.81h-3.27V23H336Z"></path><path class="cls-8" d="M342.5,27.34h-1.06l-2.91-5.7h0v5.69h-1.07V19.68h1.07l2.91,5.68h0V19.68h1.06Z"></path><path class="cls-8" d="M348.28,20.49h-2v6.85h-1.07V20.49h-1.95v-.81h5Z"></path><path class="cls-8" d="M353.93,24.57a3,3,0,0,1-.7,2.12,2.44,2.44,0,0,1-1.89.76,2.38,2.38,0,0,1-1.86-.76,3,3,0,0,1-.69-2.12V22.46a3.06,3.06,0,0,1,.69-2.12,2.35,2.35,0,0,1,1.86-.77,2.44,2.44,0,0,1,1.89.77,3,3,0,0,1,.7,2.12Zm-1.06-2.12a2.42,2.42,0,0,0-.4-1.52,1.33,1.33,0,0,0-1.13-.52,1.3,1.3,0,0,0-1.11.52,2.56,2.56,0,0,0-.38,1.52v2.12a2.54,2.54,0,0,0,.39,1.53,1.27,1.27,0,0,0,1.1.52,1.32,1.32,0,0,0,1.13-.52,2.43,2.43,0,0,0,.4-1.53Z"></path><path class="cls-8" d="M285,38.89V31.23h2.1a2.5,2.5,0,0,1,2,.92,3.57,3.57,0,0,1,.77,2.37v1.09A3.57,3.57,0,0,1,289.1,38a2.5,2.5,0,0,1-2,.91ZM286.07,32v6h1a1.46,1.46,0,0,0,1.27-.69,3.15,3.15,0,0,0,.46-1.79V34.5a3.1,3.1,0,0,0-.46-1.77,1.46,1.46,0,0,0-1.27-.69Z"></path><path class="cls-8" d="M295,35.33h-2.84v2.75h3.29v.81h-4.36V31.23h4.33V32h-3.26v2.48H295Z"></path><path class="cls-8" d="M299.91,38.89h-1.06V31.23h1.06Z"></path><path class="cls-8" d="M306.55,38.89h-1.07l-2.9-5.7h0v5.69h-1.07V31.23h1.07l2.9,5.68h0V31.23h1.07Z"></path><path class="cls-8" d="M312.88,37.8a2.34,2.34,0,0,1-.85.83,2.79,2.79,0,0,1-1.51.37,2.63,2.63,0,0,1-1.95-.73,2.81,2.81,0,0,1-.73-2.08V33.91a2.84,2.84,0,0,1,.7-2.06,2.42,2.42,0,0,1,1.85-.73,2.47,2.47,0,0,1,1.8.59,2.34,2.34,0,0,1,.66,1.66v0h-1a1.65,1.65,0,0,0-.38-1.1,1.56,1.56,0,0,0-2.15.13,2.29,2.29,0,0,0-.4,1.46v2.29a2.27,2.27,0,0,0,.43,1.5,1.49,1.49,0,0,0,1.19.51,1.6,1.6,0,0,0,.85-.19,1.19,1.19,0,0,0,.45-.47V35.79H310.5V35h2.38Z"></path><path class="cls-8" d="M318.26,35.33h-2.84v2.75h3.29v.81h-4.36V31.23h4.33V32h-3.26v2.48h2.84Z"></path><path class="cls-8" d="M324.77,38.89h-1.06l-2.9-5.7h0v5.69h-1.06V31.23h1.06l2.91,5.68h0V31.23h1.06Z"></path><path class="cls-8" d="M327.41,38.89h-1.07V31.23h1.07Z"></path><path class="cls-8" d="M332.88,35.33H330v2.75h3.29v.81H329V31.23h4.33V32H330v2.48h2.84Z"></path><path class="cls-8" d="M335.4,35.59v3.3h-1.07V31.23h2.38a2.35,2.35,0,0,1,1.69.57,2.12,2.12,0,0,1,.59,1.61,1.92,1.92,0,0,1-.28,1.05,1.86,1.86,0,0,1-.79.7,1.43,1.43,0,0,1,.83.66A2.36,2.36,0,0,1,339,37v.67a2.7,2.7,0,0,0,.07.65,1,1,0,0,0,.25.48v.12h-1.1a.84.84,0,0,1-.23-.52,4.45,4.45,0,0,1-.05-.74V37a1.65,1.65,0,0,0-.29-1,1,1,0,0,0-.81-.37Zm0-.81h1.26a1.17,1.17,0,0,0,.95-.36,1.42,1.42,0,0,0,.31-1,1.55,1.55,0,0,0-.3-1,1.12,1.12,0,0,0-.91-.37H335.4Z"></path><path class="cls-8" d="M341.42,29.28h1.19v0l-1.26,1.37h-.85Zm.16,9.61h-1.06V31.23h1.06Z"></path><path class="cls-8" d="M346.72,37h-2.44l-.56,1.94h-1.08L345,31.23h1l2.34,7.66h-1.09Zm-2.19-.84h2l-1-3.35h0Z"></path><path class="cls-8" d="M289.53,48.11v0a2.43,2.43,0,0,1-.61,1.77,2.25,2.25,0,0,1-1.71.63,2.28,2.28,0,0,1-1.8-.76,3.05,3.05,0,0,1-.67-2.11V45.55a3.1,3.1,0,0,1,.67-2.12,2.22,2.22,0,0,1,1.77-.76,2.31,2.31,0,0,1,1.73.61,2.48,2.48,0,0,1,.62,1.8v0h-1a2.06,2.06,0,0,0-.33-1.24,1.22,1.22,0,0,0-1-.39,1.17,1.17,0,0,0-1,.53,2.69,2.69,0,0,0-.36,1.52v2.14a2.68,2.68,0,0,0,.37,1.54,1.2,1.2,0,0,0,1,.53,1.14,1.14,0,0,0,1-.39,1.94,1.94,0,0,0,.32-1.24Z"></path><path class="cls-8" d="M295.58,47.67a3,3,0,0,1-.7,2.12,2.44,2.44,0,0,1-1.89.76,2.38,2.38,0,0,1-1.86-.76,3,3,0,0,1-.69-2.12V45.56a3.06,3.06,0,0,1,.69-2.12,2.35,2.35,0,0,1,1.86-.77,2.41,2.41,0,0,1,1.88.77,3,3,0,0,1,.71,2.12Zm-1.06-2.12a2.48,2.48,0,0,0-.4-1.52,1.35,1.35,0,0,0-1.13-.52,1.3,1.3,0,0,0-1.11.52,2.56,2.56,0,0,0-.38,1.52v2.12a2.62,2.62,0,0,0,.38,1.53,1.3,1.3,0,0,0,1.11.52,1.32,1.32,0,0,0,1.13-.52,2.45,2.45,0,0,0,.4-1.53Z"></path><path class="cls-8" d="M298.16,42.78,300,49h0l1.79-6.25h1.38v7.66h-1.06V47.5l.1-3h0l-1.85,5.89h-.7l-1.84-5.89h0l.1,2.94v2.94h-1.06V42.78Z"></path><path class="cls-8" d="M308.52,46.88h-2.84v2.75H309v.81h-4.37V42.78H309v.81h-3.27v2.48h2.84Z"></path><path class="cls-8" d="M311,47.14v3.3H310V42.78h2.39a2.34,2.34,0,0,1,1.68.57,2.09,2.09,0,0,1,.6,1.61,2,2,0,0,1-.28,1,1.83,1.83,0,0,1-.8.7,1.43,1.43,0,0,1,.83.66,2.36,2.36,0,0,1,.26,1.15v.67a2.7,2.7,0,0,0,.07.65,1,1,0,0,0,.24.48v.12h-1.1a.9.9,0,0,1-.23-.52,5.87,5.87,0,0,1-.05-.74v-.65a1.59,1.59,0,0,0-.29-1,1,1,0,0,0-.8-.37Zm0-.82h1.26a1.19,1.19,0,0,0,1-.35,1.42,1.42,0,0,0,.31-1,1.55,1.55,0,0,0-.3-1,1.1,1.1,0,0,0-.91-.37H311Z"></path><path class="cls-8" d="M320.62,48.11l0,0a2.51,2.51,0,0,1-.61,1.77,2.29,2.29,0,0,1-1.72.63,2.24,2.24,0,0,1-1.79-.76,3.06,3.06,0,0,1-.68-2.11V45.55a3.1,3.1,0,0,1,.67-2.12,2.22,2.22,0,0,1,1.77-.76,2.35,2.35,0,0,1,1.74.61,2.53,2.53,0,0,1,.62,1.8l0,0h-1a2.06,2.06,0,0,0-.33-1.24,1.21,1.21,0,0,0-1-.39,1.18,1.18,0,0,0-1,.53,2.69,2.69,0,0,0-.36,1.52v2.14a2.68,2.68,0,0,0,.37,1.54,1.22,1.22,0,0,0,1,.53,1.18,1.18,0,0,0,1-.39,2,2,0,0,0,.31-1.24Z"></path><path class="cls-8" d="M322.93,50.44h-1.06V42.78h1.06Z"></path><path class="cls-8" d="M328.07,48.5h-2.44l-.56,1.94H324l2.36-7.66h1l2.34,7.66h-1.09Zm-2.19-.84h1.95l-1-3.35h0Z"></path><path class="cls-8" d="M331.64,49.63h3v.81h-4.06V42.78h1.07Z"></path><path class="cls-3" d="M247.7,25.25,249.28,29h-3.15Zm.49-2h-.27l-2.78,6.59c-.56,1.33-.91,2.32-1.76,2.39v.26h2.71v-.26c-.47,0-.93-.12-.93-.57a10.11,10.11,0,0,1,.74-2.12h3.58l.49,1.16c.52,1.22.53,1.48-.63,1.53v.26h3.48v-.26c-.76,0-1-.78-1.29-1.33Zm-6.47,0h-.29c-.45,1.1-1.13,0-3,0A4.54,4.54,0,0,0,233.75,28a4.44,4.44,0,0,0,4.7,4.71A4.82,4.82,0,0,0,242,31l-.24-.28a4.17,4.17,0,0,1-3.19,1.37c-2.25,0-3.24-2.06-3.24-4,0-2.46,1-4.28,3.22-4.28a3,3,0,0,1,2.95,2.53h.33ZM231,24.57c0-.4.2-.84,1.33-.84v-.26h-4.07v.26c1.14,0,1.34.44,1.34.84v6.86c0,.4-.2.83-1.34.83v.26h4.07v-.26c-1.13,0-1.33-.43-1.33-.83Zm-5.24,0c0-.4.2-.84,1.32-.84v-.26h-3.25v.26c1.12,0,1.32.44,1.32.84v5.48l-5.26-6.58h-2.34v.26a1.29,1.29,0,0,1,1.22.62l.11.14v6.94c0,.4-.2.83-1.33.83v.26h3.26v-.26c-1.12,0-1.33-.43-1.33-.83V25.19l6.07,7.53h.21Zm-9.83-1.27h-.28c-.45,1.1-1.14,0-3,0A4.53,4.53,0,0,0,208,28a4.43,4.43,0,0,0,4.7,4.71A4.8,4.8,0,0,0,216.2,31l-.23-.28a4.18,4.18,0,0,1-3.2,1.37c-2.24,0-3.24-2.06-3.24-4,0-2.46,1-4.28,3.23-4.28a3,3,0,0,1,3,2.53H216Zm-10,9.22.62-2.31h-.38A2.52,2.52,0,0,1,203.31,32H201.5c-.27,0-.35-.28-.35-.53V28.07h1.93c.91,0,1.69.26,1.69,1.32h.29v-3.2h-.29c0,1.07-.78,1.32-1.69,1.32h-1.93V24.57a.53.53,0,0,1,.6-.53H204a1.54,1.54,0,0,1,1.56,1.39h.3v-2h-7.26v.26c1,0,1.2.44,1.2.84v6.86c0,.4-.2.83-1.2.83v.26Zm-10.58-.26c-1,0-1.2-.43-1.2-.83V24.05h1c1,0,1.64,0,1.94,1.75h.33l-.08-2.33h-7.74l-.08,2.33h.33c.3-1.75.93-1.75,1.94-1.75h1v7.38c0,.4-.2.83-1.2.83v.26h3.8Zm-19.13-7.58c0-.66.12-.7.78-.7,2.52,0,4.27,1.38,4.27,4.06s-1.61,4.05-4.4,3.92a.62.62,0,0,1-.65-.67Zm1,7.84c3.66,0,5.5-1.72,5.5-4.49,0-3.08-2.12-4.56-5.62-4.56h-3.52v.26c1,0,1.2.44,1.2.84v6.86c0,.4-.2.83-1.2.83v.26Zm-10-7.27L168.83,29h-3.16Zm.49-2h-.28l-2.77,6.59c-.56,1.33-.92,2.32-1.77,2.39v.26h2.71v-.26c-.46,0-.93-.12-.93-.57a10.11,10.11,0,0,1,.74-2.12H169l.49,1.16c.52,1.22.54,1.48-.63,1.53v.26h3.49v-.26c-.77,0-1.05-.78-1.3-1.33Zm-12.23,1.4c0-.66.13-.7.78-.7,2.53,0,4.28,1.38,4.28,4.06S159,32.09,156.17,32a.62.62,0,0,1-.66-.67Zm1,7.84c3.66,0,5.51-1.72,5.51-4.49,0-3.08-2.12-4.56-5.62-4.56h-3.52v.26c1,0,1.2.44,1.2.84v6.86c0,.4-.21.83-1.2.83v.26Zm-6.23-8c0-.4.2-.84,1.34-.84v-.26h-4.08v.26c1.14,0,1.34.44,1.34.84v6.86c0,.4-.2.83-1.34.83v.26h4.08v-.26c-1.14,0-1.34-.43-1.34-.83ZM140,32.72h.3c.13-1,1.12,0,2.54,0a2.65,2.65,0,0,0,2.88-2.51c0-1.64-1.25-2.22-3.11-3.35-.59-.35-1.45-.91-1.45-1.7a1.28,1.28,0,0,1,1.43-1.32,2.77,2.77,0,0,1,2.49,2.35h.34l-.3-2.91h-.29c-.32,1-1,0-2.43,0A2.3,2.3,0,0,0,140,25.57c0,2.61,3.74,2.69,4.29,4.6a1.54,1.54,0,0,1-1.54,2,3.12,3.12,0,0,1-2.83-2.41h-.31Zm-8.14-8.08c0-.65.12-.65,1-.65,1.23,0,2.19.54,2.19,1.89s-1.22,1.89-3.2,2Zm-1.4,6.79c0,.4-.2.83-1.16.83v.26H133v-.26c-1,0-1.2-.43-1.2-.83V28.34l.76,0,3.25,4.21h2.21v-.26a1.66,1.66,0,0,1-1.3-.76L134,28.16c1.29-.17,2.48-.85,2.48-2.29,0-1.6-1.37-2.4-3.64-2.4h-3.61v.26c1,0,1.16.44,1.16.84Zm-2.89,1.09.62-2.31h-.38A2.52,2.52,0,0,1,124.92,32h-1.8c-.28,0-.36-.28-.36-.53V28.07h1.93c.91,0,1.69.26,1.69,1.32h.29v-3.2h-.29c0,1.07-.78,1.32-1.69,1.32h-1.93V24.57a.53.53,0,0,1,.6-.53h2.2a1.54,1.54,0,0,1,1.56,1.39h.3v-2h-7.25v.26c1,0,1.2.44,1.2.84v6.86c0,.4-.21.83-1.2.83v.26Zm-13.07.2h.18c.75-2,2.16-5.58,3.17-8,.22-.55.49-1,1.14-1v-.26h-2.81v.26c.4,0,1,.07,1,.59a3.55,3.55,0,0,1-.33,1.14l-1.94,4.86-2-4.47a7.79,7.79,0,0,1-.63-1.61c0-.33.15-.51,1-.51v-.26h-3.63v.26c.79,0,1.15.77,1.52,1.59Zm-7.42-8.15c0-.4.2-.84,1.34-.84v-.26h-4.07v.26c1.13,0,1.34.44,1.34.84v6.86c0,.4-.21.83-1.34.83v.26h4.07v-.26c-1.14,0-1.34-.43-1.34-.83Zm-5.24,0c0-.4.2-.84,1.33-.84v-.26H99.88v.26c1.12,0,1.33.44,1.33.84v5.48L96,23.47H93.61v.26a1.3,1.3,0,0,1,1.22.62l.11.14v6.94c0,.4-.21.83-1.33.83v.26h3.25v-.26c-1.12,0-1.32-.43-1.32-.83V25.19l6.07,7.53h.2ZM84.24,29.06c0,2.51,1,3.66,3.5,3.66a4.83,4.83,0,0,0,1.75-.36c1.55-.74,1.68-1.94,1.68-3.49v-4.3c0-.4.21-.84,1.29-.84v-.26H89.28v.26c1.08,0,1.29.44,1.29.84v4.3c0,1.3,0,3.23-2.57,3.23-1.71,0-2.36-.81-2.36-2.94V24.57c0-.4.2-.84,1.2-.84v-.26H83v.26c1,0,1.2.44,1.2.84ZM247.7,39.4l1.58,3.76h-3.15Zm.49-2h-.27L245.14,44c-.56,1.33-.91,2.33-1.76,2.4v.25h2.71v-.25c-.47,0-.93-.13-.93-.58a10.11,10.11,0,0,1,.74-2.12h3.58l.49,1.16c.52,1.22.53,1.48-.63,1.54v.25h3.48v-.25c-.76,0-1-.78-1.29-1.35Zm-7,1.29c0-.4.21-.83,1.34-.83v-.26h-4.07v.26c1.13,0,1.34.43,1.34.83v6.86c0,.4-.21.84-1.34.84v.25h4.07v-.25c-1.13,0-1.34-.44-1.34-.84Zm-9.76.07c0-.64.12-.64,1-.64,1.23,0,2.19.53,2.19,1.88s-1.22,1.89-3.2,2Zm-1.4,6.79c0,.4-.2.84-1.16.84v.25h3.76v-.25c-1,0-1.2-.44-1.2-.84V42.49l.76,0,3.25,4.2h2.21v-.25a1.7,1.7,0,0,1-1.3-.77l-2.71-3.34c1.29-.17,2.48-.84,2.48-2.29,0-1.6-1.37-2.39-3.64-2.39H228.9v.26c1,0,1.16.43,1.16.83ZM223,39.4l1.58,3.76h-3.15Zm.49-2h-.27L220.45,44c-.56,1.33-.91,2.33-1.76,2.4v.25h2.71v-.25c-.47,0-.93-.13-.93-.58a10.67,10.67,0,0,1,.73-2.12h3.58l.5,1.16c.52,1.22.53,1.48-.63,1.54v.25h3.48v-.25c-.76,0-1-.78-1.3-1.35Zm-6.87,1.29c0-.4.21-.83,1.21-.83v-.26h-2.72l-3,6.9-3.16-6.9h-2.71v.26c1.1,0,1.3.43,1.3.83v6.86c0,.4-.2.84-1.32.84v.25h3.25v-.25c-1.12,0-1.33-.44-1.33-.84V39.21l3.43,7.46h.2l3.49-7.77v6.68c0,.4-.2.84-1.2.84v.25h3.8v-.25c-1,0-1.2-.44-1.2-.84Zm-19.92.68,1.59,3.76h-3.16Zm.49-2h-.27L194.16,44c-.56,1.33-.92,2.33-1.77,2.4v.25h2.71v-.25c-.46,0-.93-.13-.93-.58a10.11,10.11,0,0,1,.74-2.12h3.58l.49,1.16c.52,1.22.53,1.48-.63,1.54v.25h3.49v-.25c-.77,0-1.05-.78-1.3-1.35Zm-6.41,9c-1,0-1.2-.44-1.2-.84V38.2h1c1,0,1.64,0,1.94,1.75h.33l-.08-2.32H185L184.94,40h.33c.3-1.75.93-1.75,1.94-1.75h1v7.38c0,.4-.2.84-1.2.84v.25h3.8Zm-8-7.7c0-.4.21-.83,1.33-.83v-.26h-3.25v.26c1.12,0,1.32.43,1.32.83V44.2L177,37.63h-2.34v.26a1.27,1.27,0,0,1,1.22.61l.11.14v6.94c0,.4-.21.84-1.33.84v.25h3.26v-.25c-1.12,0-1.33-.44-1.33-.84V39.33l6.07,7.54h.2Zm-14.09.68,1.58,3.76h-3.15Zm.49-2H169L166.19,44c-.57,1.33-.92,2.33-1.77,2.4v.25h2.71v-.25c-.47,0-.93-.13-.93-.58a10.11,10.11,0,0,1,.74-2.12h3.58l.49,1.16c.52,1.22.53,1.48-.63,1.54v.25h3.49v-.25c-.77,0-1.06-.78-1.3-1.35Zm-12,9.44h.3c.13-1,1.12,0,2.54,0a2.65,2.65,0,0,0,2.88-2.51c0-1.64-1.26-2.22-3.11-3.34-.59-.36-1.45-.92-1.45-1.71A1.29,1.29,0,0,1,159.81,38a2.77,2.77,0,0,1,2.49,2.36h.34l-.3-2.92h-.29c-.32,1-1,0-2.43,0a2.3,2.3,0,0,0-2.42,2.29c0,2.61,3.73,2.69,4.29,4.6a1.55,1.55,0,0,1-1.54,2,3.13,3.13,0,0,1-2.83-2.42h-.31Zm-9.81-8.94c2.12,0,2.92,2.07,2.92,4.22.07,1.46-.49,4-2.92,4.22-1.62.13-2.93-1.4-2.93-4.22C144.48,39.54,145.37,38.06,147.41,37.93Zm0-.5a4.4,4.4,0,0,0-4.49,4.72,4.47,4.47,0,0,0,4.49,4.72,4.42,4.42,0,0,0,4.47-4.72A4.42,4.42,0,0,0,147.41,37.43Zm-6,0h-.29c-.45,1.11-1.13,0-3,0a4.54,4.54,0,0,0-4.67,4.73,4.44,4.44,0,0,0,4.7,4.71,4.8,4.8,0,0,0,3.55-1.71l-.23-.28a4.18,4.18,0,0,1-3.2,1.37c-2.24,0-3.23-2.06-3.23-4,0-2.46,1-4.28,3.22-4.28a3,3,0,0,1,3,2.53h.33ZM131,38.72c0-.4.21-.83,1.34-.83v-.26h-4.07v.26c1.14,0,1.34.43,1.34.83v6.86c0,.4-.2.84-1.34.84v.25h4.07v-.25c-1.13,0-1.34-.44-1.34-.84Zm-9.76.07c0-.64.12-.64,1-.64,1.23,0,2.19.53,2.19,1.88s-1.22,1.89-3.2,2Zm-1.39,6.79c0,.4-.21.84-1.16.84v.25h3.75v-.25c-1,0-1.2-.44-1.2-.84V42.49l.77,0,3.25,4.2h2.2v-.25a1.72,1.72,0,0,1-1.3-.77l-2.7-3.34c1.28-.17,2.47-.84,2.47-2.29,0-1.6-1.37-2.39-3.64-2.39h-3.6v.26c1,0,1.16.43,1.16.83Zm-2.52,1.09.62-2.31h-.39a2.51,2.51,0,0,1-2.85,1.75h-1.81c-.27,0-.35-.28-.35-.53V42.22h1.92c.92,0,1.7.26,1.7,1.33h.29v-3.2h-.29c0,1.06-.78,1.31-1.7,1.31h-1.92V38.72a.53.53,0,0,1,.6-.53h2.2a1.54,1.54,0,0,1,1.56,1.39h.3V37.63H110v.26c1,0,1.2.43,1.2.83v6.86c0,.4-.2.84-1.2.84v.25Zm-14.93-7.84c0-.66.13-.7.78-.7,2.53,0,4.28,1.38,4.28,4.06s-1.62,4.05-4.4,3.92a.62.62,0,0,1-.66-.67Zm1,7.84c3.66,0,5.51-1.72,5.51-4.49,0-3.08-2.12-4.55-5.62-4.55H99.81v.26c1,0,1.21.43,1.21.83v6.86c0,.4-.21.84-1.21.84v.25Zm-5.1,0L99,44.36h-.38a2.51,2.51,0,0,1-2.85,1.75H93.92c-.27,0-.35-.28-.35-.53V42.22h1.92c.92,0,1.7.26,1.7,1.33h.29v-3.2h-.29c0,1.06-.78,1.31-1.7,1.31H93.57V38.72a.53.53,0,0,1,.6-.53h2.2a1.54,1.54,0,0,1,1.56,1.39h.3V37.63H91v.26c1,0,1.2.43,1.2.83v6.86c0,.4-.2.84-1.2.84v.25Zm-11.54,0v-.25c-1,0-1.23-.44-1.23-.84V42.22h1.81c.91,0,1.69.26,1.69,1.33h.29v-3.2h-.29c0,1.06-.78,1.31-1.69,1.31H85.58V38.72c0-.33.11-.53.59-.53H88c1,0,1.78-.11,2,1.39h.33V37.63H83v.26c1,0,1.21.43,1.21.83v6.86c0,.4-.21.84-1.21.84v.25Z"></path></svg>